<svg width="240" height="240" viewBox="0 0 240 240" fill="none" xmlns="http://www.w3.org/2000/svg">
<rect width="240" height="240" fill="#E5E5E5"/>
<g filter="url(#filter0_d_0_1)">
<path d="M32.7113 147.969C32.0754 146.49 31.4792 145.103 30.8433 143.624C30.7638 143.439 30.7762 143.215 30.7365 143.123C30.1403 141.736 29.6882 140.178 29.2759 138.712C27.3484 132.202 26.6833 125.588 26.925 118.803C27.1146 112.149 28.7926 106.171 32.5105 100.629C34.029 98.333 35.7586 96.275 37.4485 94.1245C41.1688 89.3485 44.4941 84.4138 47.6479 79.3337C49.4149 76.6024 51.3533 74.0164 53.3315 71.5229C61.0877 61.9448 70.3619 54.1236 80.692 47.4914C84.1834 45.2235 87.886 43.1934 91.3774 40.9255C99.2797 35.9943 106.851 30.5481 114.384 25.0094C117.612 22.6357 120.919 20.4468 124.57 18.5487C125.173 18.1795 125.857 17.9952 126.513 17.4941C127.708 16.9802 128.811 16.5058 130.007 15.9919C130.19 15.9128 130.322 15.9657 130.506 15.8866C133.672 14.635 136.944 13.885 140.336 13.4124C149.197 12.2312 157.541 13.9011 165.224 18.5936C171.733 22.5855 177.05 27.857 181.134 34.3156C182.826 36.9836 184.426 39.6911 185.514 42.7283C187 46.6899 188.209 50.77 189.051 55.0083C190.653 62.5343 191.176 70.0859 190.214 77.7287C188.891 87.8267 185.106 97.0119 179.173 105.258C175.716 110.14 171.614 114.533 167.431 118.741C161.4 124.729 157.898 132.04 156.451 140.33C155.404 146.256 154.936 152.262 154.652 158.19C154.391 162.902 154.485 167.681 154.092 172.341C153.547 178.928 152.107 185.462 149.391 191.559C145.891 199.635 140.545 206.205 133.433 211.454C129.182 214.487 124.743 216.833 119.565 217.964C112.888 219.411 106.415 218.799 100.042 216.391C94.0637 214.143 88.687 210.759 83.9912 206.425C78.227 201.127 73.0792 195.235 68.6271 188.934C62.4583 180.415 55.3849 172.832 47.0392 166.343C41.4488 161.956 36.8948 156.685 33.705 150.28C33.4392 149.409 33.2132 148.63 32.7113 147.969Z" fill="url(#paint0_linear_0_1)"/>
</g>
<defs>
<filter id="filter0_d_0_1" x="22.8775" y="13.0469" width="171.819" height="213.692" filterUnits="userSpaceOnUse" color-interpolation-filters="sRGB">
<feFlood flood-opacity="0" result="BackgroundImageFix"/>
<feColorMatrix in="SourceAlpha" type="matrix" values="0 0 0 0 0 0 0 0 0 0 0 0 0 0 0 0 0 0 127 0" result="hardAlpha"/>
<feOffset dy="4"/>
<feGaussianBlur stdDeviation="2"/>
<feComposite in2="hardAlpha" operator="out"/>
<feColorMatrix type="matrix" values="0 0 0 0 0 0 0 0 0 0 0 0 0 0 0 0 0 0 0.25 0"/>
<feBlend mode="normal" in2="BackgroundImageFix" result="effect1_dropShadow_0_1"/>
<feBlend mode="normal" in="SourceGraphic" in2="effect1_dropShadow_0_1" result="shape"/>
</filter>
<linearGradient id="paint0_linear_0_1" x1="63" y1="23.9999" x2="150.5" y2="239" gradientUnits="userSpaceOnUse">
<stop stop-color="#FFD104"/>
<stop offset="0.447917" stop-color="#EC7E7F"/>
<stop offset="1" stop-color="#C02E2E"/>
</linearGradient>
</defs>
</svg>
