<svg width="240" height="240" viewBox="0 0 240 240" fill="none" xmlns="http://www.w3.org/2000/svg">
<g filter="url(#filter0_d_1_5)">
<path d="M32.7113 147.969C32.0754 146.49 31.4792 145.103 30.8433 143.624C30.7638 143.439 30.7762 143.215 30.7365 143.123C30.1403 141.736 29.6882 140.178 29.2759 138.712C27.3484 132.202 26.6833 125.588 26.925 118.803C27.1146 112.149 28.7926 106.171 32.5105 100.629C34.029 98.333 35.7586 96.275 37.4485 94.1245C41.1688 89.3485 44.4941 84.4138 47.6479 79.3337C49.4149 76.6024 51.3533 74.0164 53.3315 71.5229C61.0877 61.9448 70.3619 54.1236 80.692 47.4914C84.1834 45.2235 87.886 43.1934 91.3774 40.9255C99.2797 35.9943 106.851 30.5481 114.384 25.0094C117.612 22.6357 120.919 20.4468 124.57 18.5487C125.173 18.1795 125.857 17.9952 126.513 17.4941C127.708 16.9802 128.811 16.5058 130.007 15.9919C130.19 15.9128 130.322 15.9657 130.506 15.8866C133.672 14.635 136.944 13.885 140.336 13.4124C149.197 12.2312 157.541 13.9011 165.224 18.5936C171.733 22.5855 177.05 27.857 181.134 34.3156C182.826 36.9836 184.426 39.6911 185.514 42.7283C187 46.6899 188.209 50.77 189.051 55.0083C190.653 62.5343 191.176 70.0859 190.214 77.7287C188.891 87.8267 185.106 97.0119 179.173 105.258C175.716 110.14 171.614 114.533 167.431 118.741C161.4 124.729 157.898 132.04 156.451 140.33C155.404 146.256 154.936 152.262 154.652 158.19C154.391 162.902 154.485 167.681 154.092 172.341C153.547 178.928 152.107 185.462 149.391 191.559C145.891 199.635 140.545 206.205 133.433 211.454C129.182 214.487 124.743 216.833 119.565 217.964C112.888 219.411 106.415 218.799 100.042 216.391C94.0637 214.143 88.687 210.759 83.9912 206.425C78.227 201.127 73.0792 195.235 68.6271 188.934C62.4583 180.415 55.3849 172.832 47.0392 166.343C41.4488 161.956 36.8948 156.685 33.705 150.28C33.4392 149.409 33.2132 148.63 32.7113 147.969Z" fill="url(#paint0_linear_1_5)"/>
<path d="M181.134 34.3156C177.05 27.857 171.733 22.5855 165.224 18.5936C157.541 13.9011 149.197 12.2312 140.336 13.4124M181.134 34.3156L124.57 18.5487C124.812 18.4002 125.068 18.2816 125.33 18.1603C125.719 17.98 126.121 17.7936 126.513 17.4941L130.007 15.9919C130.099 15.9523 130.177 15.9458 130.256 15.9392C130.335 15.9327 130.414 15.9262 130.506 15.8866C133.672 14.635 136.944 13.8851 140.336 13.4124M181.134 34.3156C182.826 36.9836 184.426 39.6911 185.514 42.7283L181.134 34.3156ZM140.336 13.4124L140.405 13.9077C140.405 13.9077 140.404 13.9078 140.404 13.9079M140.336 13.4124L140.402 13.9081C140.403 13.908 140.403 13.9079 140.404 13.9079M140.404 13.9079C149.154 12.7418 157.381 14.3895 164.963 19.0203C171.406 22.9717 176.668 28.1883 180.712 34.5828L180.712 34.5834C182.401 37.246 183.975 39.9147 185.043 42.8969L185.046 42.9038C186.523 46.8432 187.725 50.8972 188.561 55.1057L188.562 55.1124C190.154 62.5922 190.672 70.0862 189.718 77.6641C188.406 87.6754 184.654 96.7833 178.767 104.966L178.765 104.969C175.333 109.816 171.254 114.185 167.077 118.387C160.966 124.457 157.421 131.865 155.958 140.244C154.906 146.199 154.437 152.229 154.153 158.163C154.042 160.158 153.995 162.165 153.948 164.16C153.939 164.532 153.931 164.903 153.921 165.273C153.863 167.638 153.789 169.985 153.593 172.299L153.593 172.3C153.052 178.843 151.623 185.319 148.934 191.355L148.932 191.36C145.469 199.351 140.182 205.851 133.14 211.049C128.924 214.056 124.549 216.364 119.458 217.476C112.883 218.901 106.508 218.3 100.219 215.924L100.218 215.923C94.303 213.698 88.9811 210.35 84.3303 206.058L84.3296 206.057C78.5921 200.783 73.4675 194.918 69.0355 188.646L69.0321 188.641C62.8393 180.088 55.7341 172.47 47.3469 165.949C41.8185 161.61 37.3226 156.408 34.1711 150.094C34.1628 150.067 34.1546 150.04 34.1463 150.013C33.906 149.222 33.6609 148.416 33.1473 147.717L33.1446 147.711L33.1409 147.702L33.1372 147.694L33.1335 147.685L33.1298 147.676L33.126 147.668L33.1223 147.659L33.1186 147.65L33.1149 147.642L33.1112 147.633L33.1075 147.625L33.1038 147.616L33.1 147.607L33.0963 147.599L33.0926 147.59L33.0889 147.581L33.0852 147.573L33.0815 147.564L33.0778 147.556L33.0741 147.547L33.0704 147.538L33.0667 147.53L33.063 147.521L33.0593 147.513L33.0556 147.504L33.0519 147.495L33.0482 147.487L33.0445 147.478L33.0408 147.469L33.0371 147.461L33.0334 147.452L33.0297 147.444L33.026 147.435L33.0223 147.427L33.0186 147.418L33.0149 147.409L33.0113 147.401L33.0076 147.392L33.0039 147.384L33.0002 147.375L32.9965 147.366L32.9928 147.358L32.9891 147.349L32.9854 147.341L32.9818 147.332L32.9781 147.324L32.9744 147.315L32.9707 147.306L32.967 147.298L32.9633 147.289L32.9597 147.281L32.956 147.272L32.9523 147.264L32.9486 147.255L32.9449 147.247L32.9413 147.238L32.9376 147.229L32.9339 147.221L32.9302 147.212L32.9266 147.204L32.9229 147.195L32.9192 147.187L32.9155 147.178L32.9119 147.17L32.9082 147.161L32.9045 147.153L32.9009 147.144L32.8972 147.136L32.8935 147.127L32.8899 147.118L32.8862 147.11L32.8825 147.101L32.8789 147.093L32.8752 147.084L32.8715 147.076L32.8679 147.067L32.8642 147.059L32.8605 147.05L32.8569 147.042L32.8532 147.033L32.8496 147.025L32.8459 147.016L32.8422 147.008L32.8386 146.999L32.8349 146.991L32.8313 146.982L32.8276 146.974L32.8239 146.965L32.8203 146.957L32.8166 146.948L32.813 146.94L32.8093 146.931L32.8057 146.923L32.802 146.914L32.7984 146.906L32.7947 146.897L32.7911 146.889L32.7874 146.88L32.7838 146.872L32.7801 146.863L32.7765 146.855L32.7728 146.846L32.7692 146.838L32.7655 146.829L32.7619 146.821L32.7582 146.812L32.7546 146.804L32.7509 146.795L32.7473 146.787L32.7436 146.778L32.74 146.77L32.7364 146.761L32.7327 146.753L32.7291 146.744L32.7254 146.736L32.7218 146.728L32.7181 146.719L32.7145 146.711L32.7109 146.702L32.7072 146.694L32.7036 146.685L32.6999 146.677L32.6963 146.668L32.6927 146.66L32.689 146.651L32.6854 146.643L32.6817 146.634L32.6781 146.626L32.6745 146.618L32.6708 146.609L32.6672 146.601L32.6636 146.592L32.6599 146.584L32.6563 146.575L32.6527 146.567L32.649 146.558L32.6454 146.55L32.6418 146.541L32.6381 146.533L32.6345 146.525L32.6309 146.516L32.6272 146.508L32.6236 146.499L32.62 146.491L32.6164 146.482L32.6127 146.474L32.6091 146.465L32.6055 146.457L32.6018 146.449L32.5982 146.44L32.5946 146.432L32.591 146.423L32.5873 146.415L32.5837 146.406L32.5801 146.398L32.5765 146.39L32.5728 146.381L32.5692 146.373L32.5656 146.364L32.562 146.356L32.5583 146.347L32.5547 146.339L32.5511 146.331L32.5475 146.322L32.5438 146.314L32.5402 146.305L32.5366 146.297L32.533 146.288L32.5294 146.28L32.5257 146.272L32.5221 146.263L32.5185 146.255L32.5149 146.246L32.5112 146.238L32.5076 146.229L32.504 146.221L32.5004 146.213L32.4968 146.204L32.4932 146.196L32.4895 146.187L32.4859 146.179L32.4823 146.171L32.4787 146.162L32.4751 146.154L32.4714 146.145L32.4678 146.137L32.4642 146.128L32.4606 146.12L32.457 146.112L32.4534 146.103L32.4497 146.095L32.4461 146.086L32.4425 146.078L32.4389 146.07L32.4353 146.061L32.4317 146.053L32.4281 146.044L32.4244 146.036L32.4208 146.028L32.4172 146.019L32.4136 146.011L32.41 146.002L32.4064 145.994L32.4028 145.986L32.3991 145.977L32.3955 145.969L32.3919 145.96L32.3883 145.952L32.3847 145.944L32.3811 145.935L32.3775 145.927L32.3738 145.918L32.3702 145.91L32.3666 145.902L32.363 145.893L32.3594 145.885L32.3558 145.876L32.3522 145.868L32.3486 145.86L32.345 145.851L32.3413 145.843L32.3377 145.834L32.3341 145.826L32.3305 145.818L32.3269 145.809L32.3233 145.801L32.3197 145.792L32.3161 145.784L32.3125 145.776L32.3088 145.767L32.3052 145.759L32.3016 145.75L32.298 145.742L32.2944 145.734L32.2908 145.725L32.2872 145.717L32.2836 145.708L32.28 145.7L32.2764 145.692L32.2727 145.683L32.2691 145.675L32.2655 145.666L32.2619 145.658L32.2583 145.65L32.2547 145.641L32.2511 145.633L32.2475 145.624L32.2439 145.616L32.2403 145.608L32.2366 145.599L32.233 145.591L32.2294 145.582L32.2258 145.574L32.2222 145.566L32.2186 145.557L32.215 145.549L32.2114 145.54L32.2078 145.532L32.2042 145.524L32.2005 145.515L32.1969 145.507L32.1933 145.498L32.1897 145.49L32.1861 145.482L32.1825 145.473L32.1789 145.465L32.1753 145.456L32.1717 145.448L32.1681 145.44L32.1644 145.431L32.1608 145.423L32.1572 145.415L32.1536 145.406L32.15 145.398L32.1464 145.389L32.1428 145.381L32.1392 145.373L32.1356 145.364L32.1319 145.356L32.1283 145.347L32.1247 145.339L32.1211 145.331L32.1175 145.322L32.1139 145.314L32.1103 145.305L32.1067 145.297L32.1031 145.289L32.0994 145.28L32.0958 145.272L32.0922 145.263L32.0886 145.255L32.085 145.247L32.0814 145.238L32.0778 145.23L32.0741 145.221L32.0705 145.213L32.0669 145.204L32.0633 145.196L32.0597 145.188L32.0561 145.179L32.0525 145.171L32.0489 145.162L32.0452 145.154L32.0416 145.146L32.038 145.137L32.0344 145.129L32.0308 145.12L32.0272 145.112L32.0235 145.104L32.0199 145.095L32.0163 145.087L32.0127 145.078L32.0091 145.07L32.0055 145.062L32.0018 145.053L31.9982 145.045L31.9946 145.036L31.991 145.028L31.9874 145.019L31.9838 145.011L31.9801 145.003L31.9765 144.994L31.9729 144.986L31.9693 144.977L31.9657 144.969L31.962 144.961L31.9584 144.952L31.9548 144.944L31.9512 144.935L31.9476 144.927L31.9439 144.918L31.9403 144.91L31.9367 144.902L31.9331 144.893L31.9294 144.885L31.9258 144.876L31.9222 144.868L31.9186 144.859L31.915 144.851L31.9113 144.843L31.9077 144.834L31.9041 144.826L31.9005 144.817L31.8968 144.809L31.8932 144.8L31.8896 144.792L31.886 144.784L31.8823 144.775L31.8787 144.767L31.8751 144.758L31.8714 144.75L31.8678 144.741L31.8642 144.733L31.8606 144.725L31.8569 144.716L31.8533 144.708L31.8497 144.699L31.846 144.691L31.8424 144.682L31.8388 144.674L31.8351 144.665L31.8315 144.657L31.8279 144.649L31.8243 144.64L31.8206 144.632L31.817 144.623L31.8133 144.615L31.8097 144.606L31.8061 144.598L31.8024 144.589L31.7988 144.581L31.7952 144.572L31.7915 144.564L31.7879 144.556L31.7843 144.547L31.7806 144.539L31.777 144.53L31.7734 144.522L31.7697 144.513L31.7661 144.505L31.7624 144.496L31.7588 144.488L31.7551 144.479L31.7515 144.471L31.7479 144.462L31.7442 144.454L31.7406 144.446L31.7369 144.437L31.7333 144.429L31.7296 144.42L31.726 144.412L31.7224 144.403L31.7187 144.395L31.7151 144.386L31.7114 144.378L31.7078 144.369L31.7041 144.361L31.7005 144.352L31.6968 144.344L31.6932 144.335L31.6895 144.327L31.6859 144.318L31.6822 144.31L31.6786 144.301L31.6749 144.293L31.6713 144.284L31.6676 144.276L31.664 144.267L31.6603 144.259L31.6567 144.25L31.653 144.242L31.6493 144.233L31.6457 144.225L31.642 144.216L31.6384 144.208L31.6347 144.199L31.631 144.191L31.6274 144.182L31.6237 144.174L31.6201 144.165L31.6164 144.157L31.6127 144.148L31.6091 144.14L31.6054 144.131L31.6018 144.123L31.5981 144.114L31.5944 144.106L31.5908 144.097L31.5871 144.089L31.5834 144.08L31.5798 144.071L31.5761 144.063L31.5724 144.054L31.5688 144.046L31.5651 144.037L31.5614 144.029L31.5577 144.02L31.5541 144.012L31.5504 144.003L31.5467 143.995L31.543 143.986L31.5394 143.978L31.5357 143.969L31.532 143.96L31.5283 143.952L31.5247 143.943L31.521 143.935L31.5173 143.926L31.5136 143.918L31.5099 143.909L31.5063 143.901L31.5026 143.892L31.4989 143.883L31.4952 143.875L31.4915 143.866L31.4879 143.858L31.4842 143.849L31.4805 143.841L31.4768 143.832L31.4731 143.823L31.4694 143.815L31.4657 143.806L31.462 143.798L31.4583 143.789L31.4547 143.781L31.451 143.772L31.4473 143.763L31.4436 143.755L31.4399 143.746L31.4362 143.738L31.4325 143.729L31.4288 143.72L31.4251 143.712L31.4214 143.703L31.4177 143.695L31.414 143.686L31.4103 143.677L31.4066 143.669L31.4029 143.66L31.3992 143.652L31.3955 143.643L31.3918 143.634L31.3881 143.626L31.3844 143.617L31.3807 143.608L31.3769 143.6L31.3732 143.591L31.3695 143.583L31.3658 143.574L31.3621 143.565L31.3584 143.557L31.3547 143.548L31.351 143.539L31.3473 143.531L31.3435 143.522L31.3398 143.513L31.3361 143.505L31.3324 143.496L31.3287 143.487L31.3249 143.479L31.3212 143.47L31.3175 143.462L31.3138 143.453L31.3101 143.444L31.3063 143.436L31.3026 143.427C31.2923 143.403 31.2819 143.36 31.2708 143.274C31.2697 143.266 31.2684 143.255 31.2669 143.243C31.2629 143.211 31.2578 143.17 31.253 143.138C31.2466 143.097 31.2327 143.011 31.1958 142.925C30.6144 141.573 30.1702 140.045 29.7572 138.577L29.7573 138.577L29.7553 138.57C27.8456 132.12 27.1845 125.561 27.4247 118.821L27.4248 118.817C27.6121 112.245 29.2669 106.361 32.9257 100.907L32.9275 100.905C34.0975 99.1358 35.3909 97.5137 36.7097 95.8599C37.0857 95.3883 37.4638 94.9142 37.8417 94.4334L37.843 94.4317C41.5761 89.6393 44.9107 84.6904 48.0702 79.6014C49.824 76.8908 51.7503 74.3207 53.7216 71.8357C61.4379 62.3073 70.6688 54.5208 80.9621 47.9122L80.9643 47.9107C82.7009 46.7827 84.4913 45.713 86.2911 44.6377L86.2953 44.6352C88.0897 43.5631 89.8936 42.4854 91.646 41.3472C99.564 36.406 107.147 30.9511 114.68 25.4122C117.895 23.048 121.18 20.8748 124.8 18.9923L124.816 18.9843L124.83 18.9753C125.047 18.8431 125.27 18.7394 125.528 18.6195C125.595 18.5887 125.663 18.5568 125.735 18.5231C126.057 18.3713 126.411 18.192 126.765 17.9297L126.766 17.9294L126.773 17.9264L126.78 17.9233L126.787 17.9203L126.794 17.9173L126.801 17.9143L126.808 17.9113L126.815 17.9084L126.822 17.9053L126.829 17.9024L126.836 17.8994L126.843 17.8964L126.85 17.8934L126.857 17.8904L126.864 17.8874L126.871 17.8844L126.878 17.8814L126.885 17.8784L126.892 17.8754L126.899 17.8724L126.906 17.8694L126.913 17.8665L126.919 17.8635L126.926 17.8605L126.933 17.8575L126.94 17.8545L126.947 17.8515L126.954 17.8486L126.961 17.8456L126.968 17.8426L126.975 17.8396L126.982 17.8366L126.989 17.8337L126.996 17.8307L127.003 17.8277L127.01 17.8247L127.017 17.8217L127.023 17.8188L127.03 17.8158L127.037 17.8128L127.044 17.8099L127.051 17.8069L127.058 17.8039L127.065 17.8009L127.072 17.798L127.079 17.795L127.086 17.792L127.093 17.7891L127.099 17.7861L127.106 17.7831L127.113 17.7802L127.12 17.7772L127.127 17.7742L127.134 17.7713L127.141 17.7683L127.148 17.7654L127.155 17.7624L127.161 17.7594L127.168 17.7565L127.175 17.7535L127.182 17.7506L127.189 17.7476L127.196 17.7446L127.203 17.7417L127.21 17.7387L127.216 17.7358L127.223 17.7328L127.23 17.7299L127.237 17.7269L127.244 17.724L127.251 17.721L127.258 17.7181L127.265 17.7151L127.271 17.7122L127.278 17.7092L127.285 17.7063L127.292 17.7033L127.299 17.7004L127.306 17.6974L127.313 17.6945L127.319 17.6915L127.326 17.6886L127.333 17.6856L127.34 17.6827L127.347 17.6798L127.354 17.6768L127.36 17.6739L127.367 17.6709L127.374 17.668L127.381 17.665L127.388 17.6621L127.395 17.6592L127.401 17.6562L127.408 17.6533L127.415 17.6504L127.422 17.6474L127.429 17.6445L127.436 17.6415L127.442 17.6386L127.449 17.6357L127.456 17.6327L127.463 17.6298L127.47 17.6269L127.477 17.6239L127.483 17.621L127.49 17.6181L127.497 17.6151L127.504 17.6122L127.511 17.6093L127.517 17.6063L127.524 17.6034L127.531 17.6005L127.538 17.5976L127.545 17.5946L127.552 17.5917L127.558 17.5888L127.565 17.5859L127.572 17.5829L127.579 17.58L127.586 17.5771L127.592 17.5742L127.599 17.5712L127.606 17.5683L127.613 17.5654L127.62 17.5625L127.626 17.5595L127.633 17.5566L127.64 17.5537L127.647 17.5508L127.654 17.5479L127.66 17.5449L127.667 17.542L127.674 17.5391L127.681 17.5362L127.687 17.5333L127.694 17.5303L127.701 17.5274L127.708 17.5245L127.715 17.5216L127.721 17.5187L127.728 17.5158L127.735 17.5128L127.742 17.5099L127.749 17.507L127.755 17.5041L127.762 17.5012L127.769 17.4983L127.776 17.4953L127.782 17.4924L127.789 17.4895L127.796 17.4866L127.803 17.4837L127.81 17.4808L127.816 17.4779L127.823 17.475L127.83 17.4721L127.837 17.4691L127.843 17.4662L127.85 17.4633L127.857 17.4604L127.864 17.4575L127.87 17.4546L127.877 17.4517L127.884 17.4488L127.891 17.4459L127.897 17.443L127.904 17.4401L127.911 17.4371L127.918 17.4342L127.925 17.4313L127.931 17.4284L127.938 17.4255L127.945 17.4226L127.952 17.4197L127.958 17.4168L127.965 17.4139L127.972 17.411L127.979 17.4081L127.985 17.4052L127.992 17.4023L127.999 17.3994L128.006 17.3965L128.012 17.3936L128.019 17.3907L128.026 17.3878L128.033 17.3849L128.039 17.382L128.046 17.3791L128.053 17.3762L128.06 17.3733L128.066 17.3704L128.073 17.3675L128.08 17.3646L128.087 17.3617L128.093 17.3587L128.1 17.3558L128.107 17.3529L128.114 17.3501L128.12 17.3472L128.127 17.3443L128.134 17.3414L128.141 17.3384L128.147 17.3355L128.154 17.3326L128.161 17.3298L128.168 17.3269L128.174 17.324L128.181 17.3211L128.188 17.3182L128.194 17.3153L128.201 17.3124L128.208 17.3095L128.215 17.3066L128.221 17.3037L128.228 17.3008L128.235 17.2979L128.242 17.295L128.248 17.2921L128.255 17.2892L128.262 17.2863L128.269 17.2834L128.275 17.2805L128.282 17.2776L128.289 17.2747L128.296 17.2718L128.302 17.2689L128.309 17.266L128.316 17.2631L128.323 17.2602L128.329 17.2573L128.336 17.2544L128.343 17.2515L128.349 17.2486L128.356 17.2457L128.363 17.2428L128.37 17.2399L128.376 17.2371L128.383 17.2342L128.39 17.2313L128.397 17.2284L128.403 17.2255L128.41 17.2226L128.417 17.2197L128.424 17.2168L128.43 17.2139L128.437 17.211L128.444 17.2081L128.45 17.2052L128.457 17.2023L128.464 17.1994L128.471 17.1965L128.477 17.1936L128.484 17.1907L128.491 17.1878L128.498 17.1849L128.504 17.182L128.511 17.1791L128.518 17.1762L128.525 17.1733L128.531 17.1705L128.538 17.1676L128.545 17.1647L128.551 17.1618L128.558 17.1589L128.565 17.156L128.572 17.1531L128.578 17.1502L128.585 17.1473L128.592 17.1444L128.599 17.1415L128.605 17.1386L128.612 17.1357L128.619 17.1328L128.626 17.1299L128.632 17.127L128.639 17.1241L128.646 17.1212L128.653 17.1183L128.659 17.1154L128.666 17.1125L128.673 17.1096L128.679 17.1067L128.686 17.1038L128.693 17.1009L128.7 17.098L128.706 17.0951L128.713 17.0922L128.72 17.0893L128.727 17.0864L128.733 17.0836L128.74 17.0807L128.747 17.0778L128.754 17.0749L128.76 17.072L128.767 17.0691L128.774 17.0662L128.781 17.0633L128.787 17.0604L128.794 17.0575L128.801 17.0546L128.808 17.0517L128.814 17.0488L128.821 17.0459L128.828 17.043L128.835 17.0401L128.841 17.0372L128.848 17.0343L128.855 17.0314L128.862 17.0285L128.868 17.0255L128.875 17.0226L128.882 17.0197L128.889 17.0168L128.895 17.0139L128.902 17.011L128.909 17.0081L128.916 17.0052L128.922 17.0023L128.929 16.9994L128.936 16.9965L128.943 16.9936L128.949 16.9907L128.956 16.9878L128.963 16.9849L128.97 16.982L128.976 16.9791L128.983 16.9762L128.99 16.9733L128.997 16.9704L129.003 16.9675L129.01 16.9646L129.017 16.9616L129.024 16.9587L129.03 16.9558L129.037 16.9529L129.044 16.95L129.051 16.9471L129.057 16.9442L129.064 16.9413L129.071 16.9384L129.078 16.9355L129.085 16.9326L129.091 16.9296L129.098 16.9267L129.105 16.9238L129.112 16.9209L129.118 16.918L129.125 16.9151L129.132 16.9122L129.139 16.9093L129.146 16.9063L129.152 16.9034L129.159 16.9005L129.166 16.8976L129.173 16.8947L129.179 16.8918L129.186 16.8889L129.193 16.8859L129.2 16.883L129.207 16.8801L129.213 16.8772L129.22 16.8743L129.227 16.8714L129.234 16.8684L129.24 16.8655L129.247 16.8626L129.254 16.8597L129.261 16.8568L129.268 16.8538L129.274 16.8509L129.281 16.848L129.288 16.8451L129.295 16.8422L129.302 16.8392L129.308 16.8363L129.315 16.8334L129.322 16.8305L129.329 16.8275L129.336 16.8246L129.342 16.8217L129.349 16.8188L129.356 16.8158L129.363 16.8129L129.37 16.81L129.376 16.807L129.383 16.8041L129.39 16.8012L129.397 16.7983L129.404 16.7953L129.411 16.7924L129.417 16.7895L129.424 16.7865L129.431 16.7836L129.438 16.7807L129.445 16.7777L129.451 16.7748L129.458 16.7719L129.465 16.7689L129.472 16.766L129.479 16.7631L129.486 16.7601L129.492 16.7572L129.499 16.7543L129.506 16.7513L129.513 16.7484L129.52 16.7454L129.527 16.7425L129.533 16.7396L129.54 16.7366L129.547 16.7337L129.554 16.7307L129.561 16.7278L129.568 16.7249L129.574 16.7219L129.581 16.719L129.588 16.716L129.595 16.7131L129.602 16.7101L129.609 16.7072L129.616 16.7042L129.622 16.7013L129.629 16.6983L129.636 16.6954L129.643 16.6925L129.65 16.6895L129.657 16.6866L129.664 16.6836L129.67 16.6806L129.677 16.6777L129.684 16.6747L129.691 16.6718L129.698 16.6688L129.705 16.6659L129.712 16.6629L129.719 16.66L129.725 16.657L129.732 16.6541L129.739 16.6511L129.746 16.6481L129.753 16.6452L129.76 16.6422L129.767 16.6393L129.774 16.6363L129.78 16.6333L129.787 16.6304L129.794 16.6274L129.801 16.6244L129.808 16.6215L129.815 16.6185L129.822 16.6155L129.829 16.6126L129.836 16.6096L129.843 16.6066L129.849 16.6037L129.856 16.6007L129.863 16.5977L129.87 16.5948L129.877 16.5918L129.884 16.5888L129.891 16.5858L129.898 16.5829L129.905 16.5799L129.912 16.5769L129.919 16.5739L129.926 16.571L129.932 16.568L129.939 16.565L129.946 16.562L129.953 16.559L129.96 16.5561L129.967 16.5531L129.974 16.5501L129.981 16.5471L129.988 16.5441L129.995 16.5411L130.002 16.5382L130.009 16.5352L130.016 16.5322L130.023 16.5292L130.03 16.5262L130.037 16.5232L130.044 16.5202L130.051 16.5172L130.057 16.5142L130.064 16.5112L130.071 16.5082L130.078 16.5053L130.085 16.5023L130.092 16.4993L130.099 16.4963L130.106 16.4933L130.113 16.4903L130.12 16.4873L130.127 16.4843L130.134 16.4813L130.141 16.4783L130.148 16.4753L130.155 16.4723L130.162 16.4692L130.169 16.4662L130.176 16.4632L130.183 16.4602L130.19 16.4572L130.197 16.4542L130.204 16.4512L130.205 16.4509C130.214 16.4469 130.221 16.4439 130.298 16.4375L130.307 16.4368C130.387 16.4302 130.531 16.4184 130.696 16.3493M140.404 13.9079C137.042 14.3763 133.813 15.1176 130.696 16.3493M130.696 16.3493C130.698 16.3482 130.701 16.3471 130.704 16.346L130.506 15.8869L130.69 16.3516C130.692 16.3508 130.694 16.3501 130.696 16.3493Z" stroke="black"/>
</g>
<defs>
<filter id="filter0_d_1_5" x="22.8775" y="13.0469" width="171.819" height="213.692" filterUnits="userSpaceOnUse" color-interpolation-filters="sRGB">
<feFlood flood-opacity="0" result="BackgroundImageFix"/>
<feColorMatrix in="SourceAlpha" type="matrix" values="0 0 0 0 0 0 0 0 0 0 0 0 0 0 0 0 0 0 127 0" result="hardAlpha"/>
<feOffset dy="4"/>
<feGaussianBlur stdDeviation="2"/>
<feComposite in2="hardAlpha" operator="out"/>
<feColorMatrix type="matrix" values="0 0 0 0 0 0 0 0 0 0 0 0 0 0 0 0 0 0 0.25 0"/>
<feBlend mode="normal" in2="BackgroundImageFix" result="effect1_dropShadow_1_5"/>
<feBlend mode="normal" in="SourceGraphic" in2="effect1_dropShadow_1_5" result="shape"/>
</filter>
<linearGradient id="paint0_linear_1_5" x1="63" y1="23.9999" x2="150.5" y2="239" gradientUnits="userSpaceOnUse">
<stop stop-color="#FFD104"/>
<stop offset="0.447917" stop-color="#EC7E7F"/>
<stop offset="1" stop-color="#C02E2E"/>
</linearGradient>
</defs>
</svg>
